<?xml version="1.0" encoding="UTF-8"?>
<svg id="_Слой_1" data-name="Слой_1" xmlns="http://www.w3.org/2000/svg" version="1.1" viewBox="0 0 3000 3000" fill="currentColor">
  <!-- Generator: Adobe Illustrator 29.3.1, SVG Export Plug-In . SVG Version: 2.1.0 Build 151)  -->
  <g>
    <path d="M1002.32,1974.45c15.24-6.88,46.36-18.32,85.79-14.3,22.06,2.25,39.8,8.64,52.09,14.3,3.5-.14,11.82-.98,18.38-7.15,9.41-8.86,8.46-22.37,8.17-26.55-1.28-18.15-13.12-22.14-13.78-36.11-.35-7.34,2.37-17.92,16.84-31.29,20.83-6.51,49.01-12.99,82.72-14.3,43.9-1.71,79.97,6.02,104.17,13.28.36,9.15-2.01,173.93,0,252.26.11,4.28.31,28.08-18.38,46.98-21.73,21.98-50.7,18.82-54.13,18.38-13.58,1.93-44.31,4.41-78.64-10.21-41.88-17.84-62.75-49.9-69.45-61.28,9.19-4.12,24.43-9.55,43.91-10.21,25.05-.85,44.32,6.61,54.13,11.23,2.74.16,14.44.54,22.8-7.81,1.59-1.59,6.11-6.54,7.84-17.72,2.67-17.22-4.02-31.49-6.13-36.77-5.59-13.94-8.05-36.88,8.17-75.57-2.04-13.66-13.97-23.74-27.57-23.49-13.23.25-24.57,10.21-26.55,23.49,3.52,7.05,8.78,19.92,9.19,36.77.53,21.65-7.23,37.79-11.23,44.94-25.83,7.17-63.76,5.45-109.28,4.09-4.97-.15-60.68-2.71-86.81-46.98-10.42-17.66-12.19-35.27-12.26-45.96Z"/>
    <path d="M948.19,1259.56c4.43,11.31,10.21,30.19,10.21,54.13s-5.79,42.82-10.21,54.13c34.38-5.46,74.59-9.38,119.49-9.19,65.01.27,121.1,9.08,165.45,19.4,5.99,21.84,11.7,51.07,12.26,85.79.48,29.8-2.98,55.47-7.15,75.57-11.13,38.98-9.64,71.79,3.06,82.72,9.14,7.87,18.38,8.17,18.38,8.17s8.27.27,16.34-5.11c13.19-8.79,14.27-43.9,3.06-86.81-4.41-22.18-7.92-47.53-9.19-75.57-2.45-53.91,4.15-100.24,12.26-135.83-42.95,5.81-94.32,9.5-152.17,7.15-47.03-1.91-89.22-7.45-125.62-14.3-6.29-24.29-11.88-57.19-10.21-96,.89-20.77,3.7-39.3,7.15-55.15,1.86-12.11,7.65-35.26,26.55-54.13,13.6-13.57,28.33-19.7,36.77-22.47,13-3.5,25.99-6.99,38.99-10.49,5.83-17.63,25.98-71.05,76.41-95.73,28.3-13.85,61.5-16.36,74.55-17.36,19.97-1.53,36.85-.42,49.02,1.02,8.56,4.01,17.13,8.03,25.69,12.04,7.44,13.01,14.87,26.01,22.31,39.02v110.3c-5.9,4.34-28.5,19.87-60.26,17.36-26.2-2.07-43.79-15.24-50.04-20.43-4.23-7.63-10.37-21.02-12.26-38.81-1.73-16.31.83-29.63,3.06-37.79-.45-9.17-6.79-16.49-14.24-17.74-9.4-1.58-20.03,6.62-20.49,18.76,1.68,9.56,2.97,22.12,2.04,36.77-.97,15.4-4.09,28.25-7.15,37.79-6.32,3.52-20.12,10.11-38.81,10.21-17.96.1-31.4-5.85-37.79-9.19-.85-.08-9.38-.7-15.32,6.13-5.65,6.5-4.27,14.37-4.09,15.32,2.69,10.62,5.06,23.33,6.13,37.79,1.44,19.59.05,36.63-2.04,50.04,3.01,13.63,15.51,21.25,25.54,18.72,7.01-1.77,12.56-8.43,14.29-16.67-1-8.65-1.38-21.23,2.04-35.74,2.02-8.58,4.89-15.77,7.66-21.45,31.37-6.73,73.15-12.23,122.04-9.19,30.41,1.89,57.21,6.69,79.66,12.26,1.7,167.15,3.4,334.3,5.11,501.45-16.49,8.75-53.24,25.35-102.13,23.49-40.35-1.54-70.77-14.96-86.81-23.49-4.19-10.72-8.42-24.12-11.23-39.83-3.34-18.65-3.7-35.08-3.06-48-1.34-9.9-8.04-17.81-16.28-19.65-11.09-2.47-24.29,6.2-26.61,20.67,4.42,26.27,3.7,47.38,2.04,62.3-.84,7.61-4.25,34.57-1.02,62.3.87,7.45,2.81,19.91,10.22,22.5,2.81.98,5.4.17,6.12-.03,52.55-12.35,94.67-13.32,123.55-11.9,43.64,2.15,108.47,12.34,105.22,11.93v73.5c-30.92,8.03-73.64,15.63-124.6,14.3-40.15-1.05-74.45-7.36-101.11-14.3-1.21-.09-2.97-.06-5.02.4-2.57.58-5.67,1.87-8.26,4.71-3.68,4.04-3.99,9.12-4.09,11.6-.48,12.1,7.85,21.57,11.2,27.65,5.28,9.58,6.64,26.14-10.17,56.75-16.08,6.1-42.86,13.95-76.6,13.28-29.56-.59-53.21-7.5-68.43-13.28-14.02-8.8-37.16-25.94-56.17-55.15-14.28-21.94-21.08-42.8-24.51-57.19,10.84-5.87,37.48-18.37,72.51-15.32,23.88,2.08,41.89,10.53,52.09,16.34,1.87-.07,12.2-.61,19.79-9.19,5.77-6.52,6.6-13.88,6.77-16.34-8.36-35.54-15.79-81.31-16.34-134.81-.58-57.14,6.87-105.83,15.32-142.98,11.91-5.53,31.29-12.75,56.16-14.49,27.98-1.96,50.35,3.89,63.32,8.36,10.82-2.27,18.04-11.89,17.36-21.45-.8-11.27-12.46-20.73-25.53-18.38-16.84,3.31-40.01,6.09-67.4,4.09-28.05-2.05-51.04-8.41-67.4-14.3-7.32-5.63-17.72-5.19-24.51,1.02-6.85,6.27-8.16,16.71-3.06,24.51,5.53,13.97,13.43,39.38,11.23,71.49-1.59,23.36-7.96,41.95-13.28,54.13-6.72,4.83-22.08,14.47-43.91,16.34-16.87,1.45-30.33-2.37-37.79-5.11-7.76,1.42-13.86,7.16-15.32,14.3-1.8,8.79,3.73,18.3,13.28,21.45,9.6-2.33,22.52-4.43,37.79-4.09,18.95.43,34.4,4.49,44.94,8.17,4.82,9.72,13.85,31.35,11.23,59.23-1.59,17.01-6.95,30.31-11.23,38.81-41.68,25.72-91.23,25.94-124.6,1.02-24.73-18.46-33.01-45.08-35.74-56.17-5.36-25.29-5.78-46.48-5.11-61.28,2.64-57.98,24.47-101.05,36.77-119.49,8.17-12.26,16.34-24.51,24.51-36.77-5.37-16.03-19.45-64.88-.7-122.78,17.72-54.71,54.35-85.34,68.1-95.78Z"/>
    <path d="M1169.81,1955.05"/>
  </g>
  <path d="M1546.91,1147.97c25.73,4.62,103.16,21.95,167.82,91.17,70.04,74.98,78.99,161.45,80.69,186.38,2.81-27.04,14.65-107.2,79.88-179.12,68.5-75.53,152.18-93.79,178.31-98.44-24.82-3.65-105.72-18.72-172.67-89.56-73.87-78.17-79.86-170.38-80.69-193.64-4.1,29.92-21.56,129.56-108.12,207.36-54.98,49.41-113.57,68.22-145.23,75.84Z"/>
  <g>
    <path d="M1663.45,1960.16c-22.06,2.25-39.8,8.64-52.09,14.3-3.5-.14-11.82-.98-18.38-7.15-9.41-8.86-8.46-22.37-8.17-26.55,1.28-18.15,13.12-22.14,13.78-36.11.35-7.34-2.37-17.92-16.84-31.29-20.83-6.51-49.01-12.99-82.72-14.3-43.9-1.71-79.97,6.02-104.17,13.28-.36,9.15,2.01,173.93,0,252.26-.11,4.28-.31,28.08,18.38,46.98,21.73,21.98,50.7,18.82,54.13,18.38,13.58,1.93,44.31,4.41,78.64-10.21,41.88-17.84,62.75-49.9,69.45-61.28-9.19-4.12-24.43-9.55-43.92-10.21-25.05-.85-44.32,6.61-54.13,11.23-2.74.16-14.44.54-22.8-7.81-1.59-1.59-6.11-6.54-7.84-17.72-2.67-17.22,4.02-31.49,6.13-36.77,5.59-13.94,8.05-36.88-8.17-75.57,2.04-13.66,13.97-23.74,27.57-23.49,13.23.25,24.57,10.21,26.55,23.49-3.52,7.05-8.78,19.92-9.19,36.77-.53,21.65,7.23,37.79,11.23,44.94,25.83,7.17,63.76,5.45,109.28,4.09,4.97-.15,60.68-2.71,86.81-46.98,10.42-17.66,12.19-35.27,12.26-45.96-15.24-6.88-46.36-18.32-85.79-14.3Z"/>
    <path d="M1932.04,1634.37c-1.96-43.04-14.5-77.84-25.85-100.47-.81,0-1.61.01-2.41.01-.17,0-4.16-.05-8.88-.3-5.15.21-10.64.38-15.99-.05-1.88.05-3.75.07-5.61.07-.13,0-2.33-.03-5.36-.14-.19,0-.37,0-.56,0-1,.02-1.99.05-2.99.06-3.83.07-7.66.08-11.49-.03-.39-.01-.79-.03-1.19-.04-2.78.12-5.57.16-8.31.16-.12,0-2.16-.03-5.02-.13-2.5.1-5,.13-7.46.13-.14,0-2.75-.04-6.23-.18-2.85.13-5.71.18-8.52.18-.14,0-2.76-.04-6.24-.18-.06,0-.12,0-.17,0-2.84.13-5.68.17-8.47.17-.02,0-.12,0-.26,0-2.67.11-5.33.15-7.96.15-.07,0-.75,0-1.83-.03-2.85.13-5.71.18-8.52.18-.11,0-1.81-.02-4.26-.1-2.23.07-4.46.1-6.65.1-.16,0-3.56-.05-7.77-.24-2.24.07-4.48.1-6.69.1-.13,0-2.33-.03-5.37-.14-.09,4.49,0,9.13.33,13.94,1.59,23.36,7.96,41.95,13.28,54.13,6.72,4.83,22.08,14.47,43.91,16.34,16.87,1.45,30.33-2.37,37.79-5.11,7.76,1.42,13.86,7.16,15.32,14.3,1.8,8.79-3.73,18.3-13.28,21.45-9.6-2.33-22.52-4.43-37.79-4.09-18.95.43-34.4,4.49-44.94,8.17-4.82,9.72-13.85,31.35-11.23,59.23,1.59,17.01,6.95,30.31,11.23,38.81,41.68,25.72,91.23,25.94,124.6,1.02,24.73-18.46,33.01-45.08,35.74-56.17,5.36-25.29,5.78-46.48,5.11-61.28Z"/>
    <path d="M1451.5,1143.96c1.14-.55,2.34-.99,3.58-1.37-.1-6.94.03-14.41.41-20.07.01-2.69.06-5.35.14-7.87-.03-2.19-.03-4.42-.01-6.63-.14-4.1-.19-8.64-.13-13.03-.05-4.36,0-8.89.13-13.01-.01-2.96,0-5.94.08-8.79-.12-4.69-.12-9.78,0-14.5-.12-4.58-.12-9.55-.01-14.19-.12-5.45-.09-11.39.09-16.63-.08-2.75-.07-5.51-.03-8.25,0-1.58.02-3.16.05-4.71-.26-6.64-.26-14.58,0-21.26-.07-3.46-.07-7.1-.02-10.61-.17-4.45-.22-9.46-.15-14.28-2.73.24-5.3.5-7.68.79-8.56,4.01-17.13,8.03-25.69,12.04-7.44,13.01-14.87,26.01-22.31,39.02v110.3c2.96,2.18,10.14,7.18,20.56,11.3,9.4.71,18.78,1.71,28.12,2.97.94-.43,1.89-.83,2.86-1.19Z"/>
    <path d="M1790.08,1793.69c-23.88,2.08-41.89,10.53-52.09,16.34-1.87-.07-12.2-.61-19.79-9.19-5.77-6.52-6.6-13.88-6.77-16.34,8.36-35.54,15.79-81.31,16.34-134.81.58-57.14-6.87-105.83-15.32-142.98-11.91-5.53-31.29-12.75-56.16-14.49-27.98-1.96-50.35,3.89-63.32,8.36-10.82-2.27-18.04-11.89-17.36-21.45.8-11.27,12.46-20.73,25.53-18.38,16.84,3.31,40.01,6.09,67.4,4.09,23.52-1.72,43.46-6.47,58.94-11.43-.47-1.61-1.23-4.29-2-7.25-.26-.75-.51-1.5-.77-2.26-2-4.49-3.61-9.17-5.15-13.83-.09-.28-.34-1.1-.68-2.26-.2-.52-.39-1.04-.58-1.57-1.51-3.22-2.8-6.54-3.99-9.89-1.02-1.49-1.83-3.62-2.27-4.54-.93-1.92-1.76-3.9-2.54-5.89-1.09-1.49-1.95-3.79-2.42-4.75-.91-1.88-1.74-3.8-2.51-5.75-1.2-2.1-2.33-4.22-3.34-6.37.01.03,0,.02-.03-.07.01.02.02.05.03.07-.04-.08-.3-.67-.64-1.48-.26-.48-.51-.95-.75-1.43-2.02-3.29-3.93-6.69-5.55-10.13.01.03,0,.02-.03-.07.01.02.02.05.03.07-.02-.04-.09-.2-.2-.45-.73-1.16-1.45-2.33-2.15-3.51-.08-.12-.15-.23-.23-.35-2.4-3.64-4.77-7.48-6.83-11.4-.36-.56-.73-1.11-1.09-1.68-64.98.28-121.05,9.08-165.38,19.4-5.99,21.84-11.7,51.07-12.26,85.79-.48,29.8,2.98,55.47,7.15,75.57,11.13,38.98,9.64,71.79-3.06,82.72-9.14,7.87-18.38,8.17-18.38,8.17,0,0-8.27.27-16.34-5.11-13.19-8.79-14.27-43.9-3.06-86.81,4.41-22.18,7.92-47.53,9.19-75.57,2.45-53.91-4.15-100.24-12.26-135.83,42.95,5.81,94.32,9.5,152.17,7.15,14.69-.6,28.85-1.58,42.56-2.82-.34-.46-.66-.93-.99-1.39-.83-.9-1.57-1.9-2.16-2.58-1.78-2.06-3.44-4.23-5.04-6.44-1.96-2.08-3.92-4.29-5.56-6.58-.64-.64-1.29-1.28-1.92-1.93-2.6-2.67-5.5-5.67-7.84-8.82-.6-.61-1.2-1.21-1.8-1.82-.85-.87-1.73-1.79-2.61-2.73-3.05-2.77-6-5.67-8.87-8.61-1.41-1.44-2.9-2.99-4.36-4.6-1.99-1.49-3.95-3.45-5.23-4.49-3.01-2.44-5.87-5.06-8.66-7.77-1.69-1.38-3.33-2.82-4.94-4.3-1.1-.57-2.26-1.45-3.37-2.39-2.01-1.5-3.99-3.5-5.28-4.54-.44-.36-.86-.74-1.3-1.1-2.62-1.31-5.61-4.44-7.35-5.85-.31-.25-.6-.52-.91-.77-.93-.53-1.89-1.26-2.82-2.03-.93-.42-1.91-1.1-2.87-1.86-1.19-.61-2.46-1.59-3.65-2.6-1.65-.79-3.47-2.34-5.03-3.75-1.09-.72-2.16-1.46-3.19-2.24-2.48-1.5-5.06-3.14-7.39-4.94-.72-.43-1.46-.87-2.21-1.33-1.42-.77-3-1.68-4.6-2.65-3.42-2.01-6.76-4.18-10.07-6.37-.03-.02-.05-.03-.08-.05-1.24-.71-2.47-1.43-3.69-2.16-.57-.34-1.15-.68-1.73-1.04-.26-.15-.53-.29-.79-.44-2.8-1.43-5.55-2.95-8.26-4.52-.95-.45-1.88-.9-2.74-1.28-4.91-2.19-9.66-4.79-14.31-7.5-1.11-.5-2.2-1.04-3.22-1.52-2.25-.82-4.48-2.02-6.42-2.89-1.12-.5-2.22-1.02-3.32-1.56-.54-.23-1.06-.47-1.58-.72-1.08-.29-2.18-.71-3.25-1.17-2.73-.75-5.51-2.3-7.87-3.35-.79-.35-1.57-.74-2.35-1.11-1.12-.4-5.8-1.89-8.45-3.42-1.04-.36-2.07-.71-3.1-1.09-.63-.23-2.78-.92-4.96-1.79-1.42-.48-2.85-.96-4.26-1.47-.88-.32-4.73-1.54-7.48-2.89-4.56-1.25-9.06-2.71-13.5-4.34-.14-.05-.36-.13-.63-.22-2.59-.7-5.16-1.48-7.72-2.31-1.63-.41-3.26-.81-4.88-1.23-10.54,1.87-20.42,4-29.56,6.26-1.7,167.15-3.4,334.3-5.11,501.45,16.49,8.75,53.24,25.35,102.13,23.49,40.35-1.54,70.77-14.96,86.81-23.49,4.19-10.72,8.42-24.12,11.23-39.83,3.34-18.65,3.7-35.08,3.06-48,1.34-9.9,8.04-17.81,16.28-19.65,11.09-2.47,24.29,6.2,26.61,20.67-4.42,26.27-3.7,47.38-2.04,62.3.84,7.61,4.25,34.57,1.02,62.3-.87,7.45-2.81,19.91-10.22,22.5-2.81.98-5.4.17-6.12-.03-52.55-12.35-94.67-13.32-123.55-11.9-43.64,2.15-108.47,12.34-105.22,11.93v73.5c30.92,8.03,73.64,15.63,124.6,14.3,40.15-1.05,74.45-7.36,101.11-14.3,1.21-.09,2.97-.06,5.02.4,2.57.58,5.67,1.87,8.26,4.71,3.68,4.04,3.99,9.12,4.09,11.6.48,12.1-7.85,21.57-11.2,27.65-5.28,9.58-6.64,26.14,10.17,56.75,16.08,6.1,42.86,13.95,76.6,13.28,29.56-.59,53.21-7.5,68.43-13.28,14.02-8.8,37.16-25.94,56.17-55.15,14.28-21.94,21.08-42.8,24.51-57.19-10.84-5.87-37.48-18.37-72.51-15.32Z"/>
  </g>
</svg>