<svg viewBox="0 0 20 20" fill="none" xmlns="http://www.w3.org/2000/svg">
<path d="M5.83301 9.16675H7.49967V10.8334H5.83301V9.16675ZM5.83301 12.5001H7.49967V14.1667H5.83301V12.5001ZM9.16634 9.16675H10.833V10.8334H9.16634V9.16675ZM9.16634 12.5001H10.833V14.1667H9.16634V12.5001ZM12.4997 9.16675H14.1663V10.8334H12.4997V9.16675ZM12.4997 12.5001H14.1663V14.1667H12.4997V12.5001Z" fill="currentColor"/>
<path d="M4.16667 18.3334H15.8333C16.7525 18.3334 17.5 17.5859 17.5 16.6667V5.00008C17.5 4.08091 16.7525 3.33341 15.8333 3.33341H14.1667V1.66675H12.5V3.33341H7.5V1.66675H5.83333V3.33341H4.16667C3.2475 3.33341 2.5 4.08091 2.5 5.00008V16.6667C2.5 17.5859 3.2475 18.3334 4.16667 18.3334ZM15.8333 6.66675L15.8342 16.6667H4.16667V6.66675H15.8333Z" fill="currentColor"/>
</svg>
