<svg class="svg-icon" style="width: 1em; height: 1em;vertical-align: middle;fill: white;overflow: hidden;" viewBox="0 0 1024 1024" version="1.1" xmlns="http://www.w3.org/2000/svg"><path d="M848 192h-80v48c0 8.8-7.2 16-16 16h-32c-8.8 0-16-7.2-16-16V192H320v48c0 8.8-7.2 16-16 16h-32c-8.8 0-16-7.2-16-16V192H176c-44 0-80 36-80 80v544c0 44 36 80 80 80h672c44 0 80-36 80-80V272c0-44-36-80-80-80z m16 600c0 22-18 40-40 40H200c-22 0-40-18-40-40V432c0-8.8 7.2-16 16-16h672c8.8 0 16 7.2 16 16v360zM320 144c0-8.8-7.2-16-16-16h-32c-8.8 0-16 7.2-16 16v48h64V144z m448 0c0-8.8-7.2-16-16-16h-32c-8.8 0-16 7.2-16 16v48h64V144z"  /></svg>