<?xml version="1.0" encoding="UTF-8" standalone="no" ?>
<!DOCTYPE svg PUBLIC "-//W3C//DTD SVG 1.1//EN" "http://www.w3.org/Graphics/SVG/1.1/DTD/svg11.dtd">
<svg xmlns="http://www.w3.org/2000/svg" xmlns:xlink="http://www.w3.org/1999/xlink" version="1.1" width="1080" height="1080" viewBox="270 270 540 540" xml:space="preserve">
<desc>Created with Fabric.js 5.2.4</desc>
<defs>
</defs>
<g transform="matrix(1 0 0 1 540 540)" id="55e5a4f5-d039-4833-bda2-df3bc27a6e89"  >
<rect style="stroke: none; stroke-width: 1; stroke-dasharray: none; stroke-linecap: butt; stroke-dashoffset: 0; stroke-linejoin: miter; stroke-miterlimit: 4; fill: rgb(255,255,255); fill-rule: nonzero; opacity: 1; visibility: hidden;" vector-effect="non-scaling-stroke"  x="-540" y="-540" rx="0" ry="0" width="1080" height="1080" />
</g>
<g transform="matrix(1 0 0 1 540 540)" id="0e7bd415-8c06-4d91-ac1f-1408ca124501"  >
</g>
<g transform="matrix(1 0 0 1 540 540)" id="1ead52a6-6a4c-45a9-b383-1708afa0cd92"  >
<path style="stroke: rgb(0,0,0); stroke-width: 0; stroke-dasharray: none; stroke-linecap: butt; stroke-dashoffset: 0; stroke-linejoin: miter; stroke-miterlimit: 4; fill: #fff; fill-rule: nonzero; opacity: 1;" vector-effect="non-scaling-stroke"  transform=" translate(-245, -245)" d="M 176.7 165 L 95.2 268 C 86.8 264.3 77.6 262.2 67.9 262.2 C 30.5 262.2 0 292.7 0 330.1 C 0 367.50000000000006 30.5 398 67.9 398 C 105.30000000000001 398 135.8 367.5 135.8 330.1 C 135.8 314.8 130.70000000000002 300.6 122.10000000000001 289.20000000000005 L 203.60000000000002 186.20000000000005 C 211.10000000000002 190.10000000000005 219.3 193.00000000000006 227.8 194.60000000000005 L 227.8 340.1 C 198.60000000000002 347.70000000000005 177 374.3 177 405.8 C 177 443.3 207.5 473.70000000000005 244.9 473.70000000000005 C 282.3 473.70000000000005 312.8 443.20000000000005 312.8 405.80000000000007 C 312.8 374.30000000000007 291.2 347.70000000000005 262 340.1000000000001 L 262 194.7 C 270.3 193.1 278.1 190.39999999999998 285.4 186.7 L 367 290.2 C 358.8 301.4 353.9 315.2 353.9 330.2 C 353.9 367.59999999999997 384.4 398.1 421.79999999999995 398.1 C 459.19999999999993 398.1 489.99999999999994 367.6 489.99999999999994 330.1 C 489.99999999999994 292.70000000000005 459.49999999999994 262.20000000000005 422.0999999999999 262.20000000000005 C 411.9999999999999 262.20000000000005 402.3999999999999 264.40000000000003 393.7999999999999 268.40000000000003 L 312.69999999999993 165.60000000000002 C 326.5999999999999 149.70000000000002 335.0999999999999 129.00000000000003 335.0999999999999 106.30000000000003 C 335.0999999999999 56.700000000000024 294.69999999999993 16.300000000000026 245.0999999999999 16.300000000000026 C 195.4999999999999 16.300000000000026 155.0999999999999 56.700000000000024 155.0999999999999 106.30000000000003 C 155 128.7 163.2 149.2 176.7 165 z M 67.9 363.8 C 49.400000000000006 363.8 34.300000000000004 348.7 34.300000000000004 330.2 C 34.300000000000004 311.7 49.400000000000006 296.59999999999997 67.9 296.59999999999997 C 86.4 296.59999999999997 101.5 311.7 101.5 330.2 C 101.5 348.7 86.5 363.8 67.9 363.8 z M 278.6 406 C 278.6 424.5 263.5 439.6 245.00000000000003 439.6 C 226.50000000000006 439.6 211.40000000000003 424.5 211.40000000000003 406 C 211.40000000000003 387.7 226.10000000000002 372.8 244.40000000000003 372.4 C 244.60000000000002 372.4 244.80000000000004 372.4 245.10000000000002 372.4 C 245.3 372.4 245.50000000000003 372.4 245.8 372.4 C 263.9 372.7 278.6 387.7 278.6 406 z M 455.7 330.1 C 455.7 348.6 440.59999999999997 363.70000000000005 422.09999999999997 363.70000000000005 C 403.59999999999997 363.70000000000005 388.49999999999994 348.6 388.49999999999994 330.1 C 388.49999999999994 311.6 403.59999999999997 296.5 422.09999999999997 296.5 C 440.59999999999997 296.5 455.7 311.6 455.7 330.1 z M 245 50.6 C 275.7 50.6 300.7 75.6 300.7 106.30000000000001 C 300.7 137.00000000000003 275.7 162 245 162 C 214.3 162 189.3 137 189.3 106.3 C 189.3 75.6 214.3 50.6 245 50.6 z" stroke-linecap="round" />
</g>
<g transform="matrix(1.65 0 0 1.65 540 401.86)" id="3831eab5-5710-4b47-a36d-e6ef2d93a0c6"  >
<circle style="stroke: rgb(0,0,0); stroke-width: 0; stroke-dasharray: none; stroke-linecap: butt; stroke-dashoffset: 0; stroke-linejoin: miter; stroke-miterlimit: 4; fill: #fff; fill-rule: nonzero; opacity: 1;" vector-effect="non-scaling-stroke"  cx="0" cy="0" r="35" />
</g>
<g transform="matrix(1.65 0 0 1.65 363.14 626.37)" id="3831eab5-5710-4b47-a36d-e6ef2d93a0c6"  >
<circle style="stroke: rgb(0,0,0); stroke-width: 0; stroke-dasharray: none; stroke-linecap: butt; stroke-dashoffset: 0; stroke-linejoin: miter; stroke-miterlimit: 4; fill: #fff; fill-rule: nonzero; opacity: 1;" vector-effect="non-scaling-stroke"  cx="0" cy="0" r="35" />
</g>
<g transform="matrix(1.65 0 0 1.65 540 700.71)" id="3831eab5-5710-4b47-a36d-e6ef2d93a0c6"  >
<circle style="stroke: rgb(0,0,0); stroke-width: 0; stroke-dasharray: none; stroke-linecap: butt; stroke-dashoffset: 0; stroke-linejoin: miter; stroke-miterlimit: 4; fill: #fff; fill-rule: nonzero; opacity: 1;" vector-effect="non-scaling-stroke"  cx="0" cy="0" r="35" />
</g>
<g transform="matrix(1.65 0 0 1.65 716.98 624.92)" id="3831eab5-5710-4b47-a36d-e6ef2d93a0c6"  >
<circle style="stroke: rgb(0,0,0); stroke-width: 0; stroke-dasharray: none; stroke-linecap: butt; stroke-dashoffset: 0; stroke-linejoin: miter; stroke-miterlimit: 4; fill: #fff; fill-rule: nonzero; opacity: 1;" vector-effect="non-scaling-stroke"  cx="0" cy="0" r="35" />
</g>
</svg>