<svg viewBox="0 0 18 16" fill="none" xmlns="http://www.w3.org/2000/svg">
<path d="M9.65625 3.3125C10.0125 3.09375 10.25 2.69687 10.25 2.25C10.25 1.55937 9.69063 1 9 1C8.30937 1 7.75 1.55937 7.75 2.25C7.75 2.7 7.9875 3.09375 8.34375 3.3125L6.55312 6.89375C6.26875 7.4625 5.53125 7.625 5.03438 7.22813L2.25 5C2.40625 4.79063 2.5 4.53125 2.5 4.25C2.5 3.55938 1.94062 3 1.25 3C0.559375 3 0 3.55938 0 4.25C0 4.94062 0.559375 5.5 1.25 5.5H1.27188L2.7 13.3562C2.87188 14.3062 3.7 15 4.66875 15H13.3313C14.2969 15 15.125 14.3094 15.3 13.3562L16.7281 5.5H16.75C17.4406 5.5 18 4.94062 18 4.25C18 3.55938 17.4406 3 16.75 3C16.0594 3 15.5 3.55938 15.5 4.25C15.5 4.53125 15.5938 4.79063 15.75 5L12.9656 7.22813C12.4688 7.625 11.7312 7.4625 11.4469 6.89375L9.65625 3.3125Z" fill="currentColor"/>
</svg>
