<svg viewBox="0 0 28 28" fill="none" xmlns="http://www.w3.org/2000/svg">
<path d="M7 8.09698C7 7.01303 7 6.47106 7.25433 6.05684C7.47803 5.69265 7.83497 5.39655 8.274 5.21098C8.77333 5 9.42667 5 10.7333 5H17.2667C18.5733 5 19.2267 5 19.726 5.21098C20.165 5.39655 20.522 5.69265 20.7457 6.05684C21 6.47106 21 7.01303 21 8.09698V20.9736C21 21.444 21 21.6792 20.8822 21.8079C20.8313 21.8639 20.7663 21.91 20.6917 21.9431C20.6172 21.9762 20.5349 21.9954 20.4505 21.9995C20.2557 22.0092 20.02 21.8785 19.5487 21.6182L14 18.5493L8.45133 21.6172C7.98 21.8785 7.74433 22.0092 7.54833 21.9995C7.46414 21.9953 7.38206 21.976 7.30773 21.9429C7.23341 21.9098 7.16862 21.8637 7.11783 21.8079C7 21.6792 7 21.444 7 20.9736V8.09698Z" fill="currentColor" stroke="currentColor" stroke-width="1.5" stroke-linecap="round" stroke-linejoin="round"/>
</svg>
