<svg viewBox="0 0 17 21" fill="none" xmlns="http://www.w3.org/2000/svg">
<path d="M14.5714 7.41176H13.3571V4.94118C13.3571 2.21735 11.1787 0 8.5 0C5.82129 0 3.64286 2.21735 3.64286 4.94118V7.41176H2.42857C1.08921 7.41176 0 8.51859 0 9.88235V18.5294C0 19.8932 1.08921 21 2.42857 21H14.5714C15.9108 21 17 19.8932 17 18.5294V9.88235C17 8.51859 15.9108 7.41176 14.5714 7.41176ZM8.5 17.6635C8.08134 17.6635 7.67982 17.4943 7.38378 17.1931C7.08774 16.892 6.92143 16.4835 6.92143 16.0576C6.92143 15.6317 7.08774 15.2232 7.38378 14.9221C7.67982 14.6209 8.08134 14.4517 8.5 14.4517C8.91866 14.4517 9.32018 14.6209 9.61622 14.9221C9.91226 15.2232 10.0786 15.6317 10.0786 16.0576C10.0786 16.4835 9.91226 16.892 9.61622 17.1931C9.32018 17.4943 8.91866 17.6635 8.5 17.6635ZM10.9286 8.64706H6.07143V4.94118C6.07143 3.57741 7.16064 2.47059 8.5 2.47059C9.83936 2.47059 10.9286 3.57741 10.9286 4.94118V8.64706Z" fill="currentColor"/>
</svg>
