<svg viewBox="0 0 20 16" fill="none" xmlns="http://www.w3.org/2000/svg">
<path d="M16 9C16.2833 9 16.521 8.904 16.713 8.712C16.905 8.52 17.0007 8.28267 17 8C16.9993 7.71733 16.9033 7.48 16.712 7.288C16.5207 7.096 16.2833 7 16 7H13C12.7167 7 12.4793 7.096 12.288 7.288C12.0967 7.48 12.0007 7.71733 12 8C11.9993 8.28267 12.0953 8.52033 12.288 8.713C12.4807 8.90567 12.718 9.00133 13 9H16ZM16 6C16.2833 6 16.521 5.904 16.713 5.712C16.905 5.52 17.0007 5.28267 17 5C16.9993 4.71733 16.9033 4.48 16.712 4.288C16.5207 4.096 16.2833 4 16 4H13C12.7167 4 12.4793 4.096 12.288 4.288C12.0967 4.48 12.0007 4.71733 12 5C11.9993 5.28267 12.0953 5.52033 12.288 5.713C12.4807 5.90567 12.718 6.00133 13 6H16ZM7 9C6.4 9 5.85833 9.05433 5.375 9.163C4.89167 9.27167 4.46667 9.44233 4.1 9.675C3.75 9.89167 3.48333 10.1377 3.3 10.413C3.11667 10.6883 3.025 10.984 3.025 11.3C3.025 11.5 3.1 11.6667 3.25 11.8C3.4 11.9333 3.58333 12 3.8 12H10.2C10.4167 12 10.6 11.929 10.75 11.787C10.9 11.645 10.975 11.466 10.975 11.25C10.975 10.9667 10.8833 10.6917 10.7 10.425C10.5167 10.1583 10.25 9.90833 9.9 9.675C9.53333 9.44167 9.10833 9.27067 8.625 9.162C8.14167 9.05333 7.6 8.99933 7 9ZM7 8C7.55 8 8.02067 7.80433 8.412 7.413C8.80333 7.02167 8.99933 6.55067 9 6C9.00067 5.44933 8.805 4.97867 8.413 4.588C8.021 4.19733 7.55 4.00133 7 4C6.45 3.99867 5.97933 4.19467 5.588 4.588C5.19667 4.98133 5.00067 5.452 5 6C4.99933 6.548 5.19533 7.019 5.588 7.413C5.98067 7.807 6.45133 8.00267 7 8ZM2 16C1.45 16 0.979333 15.8043 0.588 15.413C0.196667 15.0217 0.000666667 14.5507 0 14V2C0 1.45 0.196 0.979333 0.588 0.588C0.98 0.196666 1.45067 0.000666667 2 0H18C18.55 0 19.021 0.196 19.413 0.588C19.805 0.98 20.0007 1.45067 20 2V14C20 14.55 19.8043 15.021 19.413 15.413C19.0217 15.805 18.5507 16.0007 18 16H2Z" fill="currentColor"/>
</svg>
