<svg viewBox="0 0 26 26" fill="none" xmlns="http://www.w3.org/2000/svg">
<path d="M17.333 11.917C19.1313 11.917 20.5722 10.4653 20.5722 8.66699C20.5722 6.86866 19.1313 5.41699 17.333 5.41699C15.5347 5.41699 14.083 6.86866 14.083 8.66699C14.083 10.4653 15.5347 11.917 17.333 11.917ZM8.66634 11.917C10.4647 11.917 11.9055 10.4653 11.9055 8.66699C11.9055 6.86866 10.4647 5.41699 8.66634 5.41699C6.86801 5.41699 5.41634 6.86866 5.41634 8.66699C5.41634 10.4653 6.86801 11.917 8.66634 11.917ZM8.66634 14.0837C6.14217 14.0837 1.08301 15.3512 1.08301 17.8753V20.5837H16.2497V17.8753C16.2497 15.3512 11.1905 14.0837 8.66634 14.0837ZM17.333 14.0837C17.0188 14.0837 16.6613 14.1053 16.2822 14.1378C17.5388 15.0478 18.4163 16.272 18.4163 17.8753V20.5837H24.9163V17.8753C24.9163 15.3512 19.8572 14.0837 17.333 14.0837Z" fill="currentColor"/>
</svg>
