<svg viewBox="0 0 150 150" fill="none" xmlns="http://www.w3.org/2000/svg">
<path d="M136.67 24.522L80.4199 1.08449C78.7065 0.373687 76.8697 0.0078125 75.0146 0.0078125C73.1596 0.0078125 71.3228 0.373687 69.6094 1.08449L13.3594 24.522C8.11523 26.69 4.6875 31.8169 4.6875 37.5005C4.6875 95.6548 38.2324 135.85 69.5801 148.917C73.0371 150.352 76.9336 150.352 80.3906 148.917C105.498 138.458 145.312 102.334 145.312 37.5005C145.312 31.8169 141.885 26.69 136.67 24.522ZM75.0293 130.752L75 19.1314L126.533 40.606C125.566 84.9614 102.48 117.1 75.0293 130.752Z" fill="currentColor"/>
</svg>
